<?xml version="1.0" encoding="utf-8"?>
<!-- Generator: Adobe Illustrator 24.0.0, SVG Export Plug-In . SVG Version: 6.00 Build 0)  -->
<svg version="1.1" id="Layer_1" xmlns="http://www.w3.org/2000/svg" xmlns:xlink="http://www.w3.org/1999/xlink" x="0px" y="0px" width="171.154px" height="62.864px"
	 viewBox="0 0 169.9 62.8" style="enable-background:new 0 0 169.9 62.8;" xml:space="preserve">
<style type="text/css">
	.st0{fill:#E5E5E5;}
	.st1{fill:#F2F2F2;}
	.st2{fill:#FFFFFF;}
</style>
<g id="LB">
	<path class="st0" d="M0,62.8c33.5-18,82.2-39.9,120-42.9c19,0,15.5,5.7,42.7,6.6l1.6-2.8c-5.6-2.9-17.3-13.3-32.8-18.2
		C107.2-2.1,10.8,39.9,10.8,39.9c0.2-0.3,0.5-0.7,0.7-1C5.6,46.6,9,54.9,0,62.8L0,62.8z"/>
	<path class="st1" d="M164.3,23.7l3.6-6.7c-12.2-3.9-26.2-15.2-33.8-16.2C91.9-4.9,38.2,22.2,19.9,32.1c-0.3,0.2-0.5,0.3-0.8,0.5
		l-0.3,0.2c-0.2,0.1-0.4,0.2-0.5,0.3c-0.1,0.1-0.2,0.1-0.3,0.2l-0.5,0.3l-0.3,0.2c-0.1,0.1-0.3,0.2-0.4,0.3
		c-0.1,0.1-0.2,0.2-0.3,0.2l-0.4,0.3c-0.1,0.1-0.2,0.1-0.3,0.2c-0.1,0.1-0.2,0.2-0.4,0.3c-0.1,0.1-0.2,0.1-0.3,0.2L15,35.4l-0.3,0.2
		c-0.1,0.1-0.2,0.2-0.3,0.3l-0.2,0.2c-0.1,0.1-0.2,0.2-0.3,0.3c-0.1,0.1-0.1,0.1-0.2,0.2c-0.1,0.1-0.2,0.2-0.3,0.3L13.1,37
		c-0.1,0.1-0.2,0.2-0.3,0.3l-0.2,0.2c-0.1,0.1-0.2,0.2-0.3,0.3c0,0.1-0.1,0.1-0.2,0.2L12,38.3l-0.1,0.2c-0.1,0.1-0.2,0.2-0.3,0.4
		L11.5,39c-0.2,0.3-0.5,0.7-0.7,1c0,0,96.5-42,120.7-34.5C147.1,10.4,158.7,20.8,164.3,23.7z"/>
	<path class="st2" d="M162.9,26.5l1.1,0.1l1.1,0l1.2-2.2l3.6-6.8l-1-0.3c-0.3-0.1-0.7-0.2-1-0.3l-3.6,6.7L162.9,26.5z"/>
</g>
</svg>
