<?xml version="1.0" encoding="utf-8"?>
<!-- Generator: Adobe Illustrator 24.0.0, SVG Export Plug-In . SVG Version: 6.00 Build 0)  -->
<svg version="1.1" id="Layer_1" xmlns="http://www.w3.org/2000/svg" xmlns:xlink="http://www.w3.org/1999/xlink" x="0px" y="0px"
	 viewBox="0 0 750 630.5" style="enable-background:new 0 0 750 630.5;" xml:space="preserve">
<style type="text/css">
	.st0{display:none;fill:none;}
	.st1{fill:#212159;}
	.st2{display:none;fill:url(#SVGID_1_);}
	.st3{display:none;fill:url(#SVGID_2_);}
	.st4{fill:#1D2C75;}
	.st5{display:none;}
	.st6{display:inline;}
	.st7{fill:#0D0808;}
	.st8{fill:#141414;}
	.st9{fill:#FF0000;}
	.st10{display:inline;fill:none;}
	.st11{fill:#120B0B;}
	.st12{fill:#242424;}
	.st13{fill:#292929;}
	.st14{fill:#191919;}
	.st15{fill:#1C1C1C;}
	.st16{fill:#171717;}
	.st17{fill:#0F0F0F;}
	.st18{fill:#1A1A1A;}
	.st19{display:inline;fill:#242424;}
	.st20{display:inline;fill:#1C1C1C;}
	.st21{fill:#EBEBEB;}
	.st22{fill:#EDF4F4;}
	.st23{fill:#DBDBDB;}
	.st24{fill:#E3E3E3;}
	.st25{fill:#D6D6D6;}
	.st26{display:inline;fill:#0F0F0F;}
	.st27{fill:#E6E6E6;}
	.st28{fill:#E8E8E8;}
	.st29{fill:#F0F0F0;}
	.st30{fill:#E5E5E5;}
	.st31{fill:#212121;}
	.st32{fill:#1A1615;}
	.st33{fill:#0A0A0A;stroke:#000000;stroke-width:0.9994;stroke-miterlimit:9.9939;}
	.st34{opacity:0.5;}
	.st35{fill:#EAEAEA;}
	.st36{fill:#172659;}
	.st37{fill:#FC92FF;}
	.st38{fill:#0A0A0A;}
	.st39{display:inline;fill:#1A1A1A;}
	.st40{display:inline;fill:#0D0D0D;}
	.st41{fill:#373793;}
	.st42{fill:#2A2A75;}
	.st43{fill:#202056;}
	.st44{opacity:0.15;fill:url(#Right_2_);enable-background:new    ;}
	.st45{opacity:0.15;fill:url(#Left_1_);enable-background:new    ;}
	.st46{opacity:0.3;fill:url(#shouldershades_left_1_);enable-background:new    ;}
	.st47{opacity:0.3;fill:url(#shouldershades_right_1_);enable-background:new    ;}
	.st48{fill:#FFFFFF;}
	.st49{opacity:0.5;fill:#2727AA;enable-background:new    ;}
	.st50{fill:none;}
	.st51{enable-background:new    ;}
	.st52{fill:#AEAEAE;}
</style>
<rect id="svgEditorBackground" x="0.2" y="0.2" class="st0" width="749.5" height="630.1"/>
<g id="Layer_1_1_">
	<path class="st1" d="M664.2,214c-6.7-16.7-20.5-20.9-21.8-22c-11.7-10.3-2.5-21.2-19.9-30.7c-18.3-9.9-71.9-37-114.2-31.4
		c-9.2,1.2-27.8,17.6-41.2,17.6c-21.9,0-92.1,0-92.1,0s-70.3,0-92.1,0c-13.4,0-32-16.4-41.2-17.6c-42.2-5.6-95.9,21.4-114.2,31.4
		c-17.5,9.5-8.2,20.3-19.9,30.7c-1.3,1.1-15.1,5.3-21.8,22C23.1,370-1.5,469,0.3,529c2.9,94.4,76.5,101.3,76.5,101.3
		c37-8.6,111.5-129.1,168.4-129.1c31.1,0,129.7,0,129.7,0s98.6,0,129.7,0c57,0,131.4,120.4,168.4,129.1c0,0,73.6-6.9,76.5-101.3
		C751.5,469,726.9,370,664.2,214z"/>
	<g>
		
			<linearGradient id="SVGID_1_" gradientUnits="userSpaceOnUse" x1="106.4134" y1="-344.4" x2="107.5677" y2="-344.4" gradientTransform="matrix(1 0 0 -1 0 -152)">
			<stop  offset="0" style="stop-color:#029AEB"/>
			<stop  offset="1" style="stop-color:#161D45"/>
		</linearGradient>
		<path class="st2" d="M106.4,192.7c0.5-0.3,0.9-0.5,1.2-0.6C107.2,192.3,106.8,192.5,106.4,192.7z"/>
		
			<linearGradient id="SVGID_2_" gradientUnits="userSpaceOnUse" x1="642.3953" y1="-344.4" x2="643.9213" y2="-344.4" gradientTransform="matrix(1 0 0 -1 0 -152)">
			<stop  offset="0" style="stop-color:#029AEB"/>
			<stop  offset="1" style="stop-color:#161D45"/>
		</linearGradient>
		<path class="st3" d="M642.4,192c0.2,0.2,0.8,0.4,1.5,0.8C643.4,192.6,642.9,192.3,642.4,192z"/>
		<path class="st4" d="M664.1,213.8c-3.3-8.3-8.4-13.5-12.9-16.8c-3-2.2-5.7-3.6-7.4-4.4c-0.8-0.4-1.3-0.6-1.5-0.8
			c-33.5-18-86.8-41.6-120-42.9c-26.8,0,0.3,7.4-82.1,7.4c-15.1,0-66.9-0.1-66.9-0.1s-38.4,0.3-53.4,0.3
			c-95.5,0.4-64.2-8.3-94.4-7.7c-17.7,0-69.5,16.3-118,42.9c-0.2,0.2-0.6,0.4-1.2,0.6c-1.8,0.8-5.1,2.4-8.7,5.3
			c-4.2,3.3-8.8,8.3-11.9,16C23,369.8-1.6,468.8,0.3,528.8c2.9,94.4,76.5,101.3,76.5,101.3c37-8.6,111.5-129.1,168.4-129.1
			c31.1,0,129.7,0,129.7,0s98.6,0,129.7,0c57,0,131.4,120.4,168.4,129.1c0,0,73.6-6.9,76.5-101.3
			C751.5,468.8,726.8,369.8,664.1,213.8L664.1,213.8z"/>
	</g>
	<g id="Dpad">
		<g class="st5">
			<path class="st6" d="M277.7,462c-33.4,0-60.6-27.2-60.6-60.6s27.2-60.6,60.6-60.6s60.6,27.2,60.6,60.6
				C338.3,434.8,311.1,462,277.7,462z"/>
			<g class="st6">
				<path class="st7" d="M277.7,341.8c32.9,0,59.6,26.7,59.6,59.6S310.6,461,277.7,461s-59.6-26.7-59.6-59.6
					C218.1,368.6,244.9,341.8,277.7,341.8 M277.7,339.8c-34,0-61.6,27.6-61.6,61.6s27.6,61.6,61.6,61.6s61.6-27.6,61.6-61.6
					C339.3,367.4,311.7,339.8,277.7,339.8L277.7,339.8z"/>
			</g>
		</g>
		<g class="st5">
			<g class="st6">
				<path class="st8" d="M291.3,353.5L291.3,353.5c0-5-27.1-5-27.1,0c0,23.8,0,95.9,0,95.9l0,0l0,0c0,5,27.1,5,27.1,0
					C291.3,425.6,291.3,353.5,291.3,353.5L291.3,353.5z"/>
			</g>
			<g class="st6">
				<path class="st8" d="M229.8,387.9L229.8,387.9c-5,0-5,27.1,0,27.1c23.9,0,95.9,0,95.9,0l0,0l0,0c5,0,5-27.1,0-27.1
					C301.8,387.9,229.8,387.9,229.8,387.9L229.8,387.9z"/>
			</g>
		</g>
		<g class="st5">
			<g class="st6">
				<path class="st9" d="M277.7,349.8c6.8,0,13.6,1.2,13.6,3.7l0,0l0,0c0,0,0,15.4,0,34.4c13.8,0,26.6,0,34.4,0c5,0,5,27.1,0,27.1
					l0,0l0,0c0,0-15.5,0-34.4,0c0,13.8,0,26.7,0,34.4c0,2.5-6.8,3.7-13.6,3.7c-6.8,0-13.6-1.2-13.6-3.7l0,0l0,0c0,0,0-15.4,0-34.4
					c-13.8,0-26.6,0-34.4,0c-5,0-5-27.1,0-27.1l0,0c0,0,15.4,0,34.4,0c0-13.8,0-26.7,0-34.4C264.2,351,270.9,349.8,277.7,349.8
					 M277.7,346.2c-3.8,0-7.5,0.4-10.2,1c-5.8,1.4-7,4.2-7,6.3v30.8h-30.8c-2.1,0-4.9,1.2-6.3,7c-0.7,2.7-1,6.4-1,10.2
					c0,3.8,0.4,7.4,1,10.2c1.4,5.8,4.2,7,6.3,7h30.8v30.8v0.8l0.1,0.2c0.4,1.9,2.1,4,6.9,5.2c2.7,0.7,6.3,1,10.2,1
					c3.8,0,7.4-0.4,10.2-1c5.8-1.4,7-4.2,7-6.3v-30.8h30.8h1.5l0.3-0.3c1.7-0.7,3.4-2.5,4.5-6.6c0.7-2.7,1-6.4,1-10.2
					c0-3.8-0.4-7.4-1-10.2c-1.4-5.8-4.2-7-6.3-7h-30.8v-30.8c0-2.1-1.2-4.9-7-6.3C285.2,346.5,281.5,346.2,277.7,346.2L277.7,346.2z
					"/>
			</g>
			<line class="st10" x1="287.7" y1="357.1" x2="294.9" y2="349.9"/>
			<line class="st10" x1="267.8" y1="356.1" x2="261" y2="349.3"/>
			<line class="st10" x1="322.3" y1="391.2" x2="329" y2="384.5"/>
			<line class="st10" x1="322.8" y1="412.1" x2="328.5" y2="417.8"/>
			<line class="st10" x1="286.7" y1="392.4" x2="295.8" y2="383.3"/>
			<line class="st10" x1="286.2" y1="409.9" x2="296.4" y2="420.1"/>
			<line class="st10" x1="287.6" y1="445.7" x2="295" y2="453.1"/>
			<line class="st10" x1="268.6" y1="445" x2="259.8" y2="453.8"/>
			<line class="st10" x1="269.6" y1="409.5" x2="258.7" y2="420.5"/>
			<line class="st10" x1="270.4" y1="394.1" x2="258" y2="381.7"/>
			<line class="st10" x1="233.8" y1="410.9" x2="225.7" y2="419.1"/>
			<line class="st10" x1="233.5" y1="391.6" x2="226.1" y2="384.2"/>
		</g>
		<g>
			<g>
				<path class="st8" d="M277.7,452.6c-7.1,0-12.7-1.3-13-3.1v-0.1c0-0.1,0-15.5,0-34.4c0-0.3-0.2-0.5-0.5-0.5h-34.4
					c-1.8,0-3.2-5.7-3.2-13s1.4-13,3.2-13h34.4c0.3,0,0.5-0.2,0.5-0.5v-34.4v-0.1l0.1-0.2l0.1-0.1c0.5-0.8,2.1-1.5,4.5-2
					c0.3-0.1,0.6-0.1,0.9-0.2c0.4-0.1,0.7-0.1,1-0.1c0,0,0.1,0,0.2,0c0.3,0,0.6-0.1,0.9-0.1s0.7-0.1,1-0.1c0.4,0,0.7-0.1,1-0.1
					l2.4-0.1c0.4,0,0.7,0,1,0c7.3,0,13.1,1.4,13.1,3.2c0,0.2,0,16,0,34.4c0,0.3,0.2,0.5,0.5,0.5h34.4c1.8,0,3.2,5.7,3.2,13
					s-1.4,13-3.2,13h-34.4c-0.3,0-0.5,0.2-0.5,0.5v34.4c0,0,0,0.1,0,0.2C290.5,451.3,284.9,452.6,277.7,452.6z"/>
				<path class="st11" d="M277.7,350.8c8.1,0,12.6,1.6,12.6,2.7l0,0v34.4c0,0.6,0.4,1,1,1h34.4c1.1,0,2.7,4.8,2.7,12.5
					c0,7.8-1.6,12.5-2.7,12.5h-34.4c-0.6,0-1,0.4-1,1v34.4c0,0,0,0,0,0.1c-0.2,1.1-4.7,2.7-12.6,2.7s-12.4-1.5-12.5-2.7v-0.1V415
					c0-0.6-0.4-1-1-1h-34.4c-1.1,0-2.7-4.8-2.7-12.5s1.6-12.6,2.7-12.6h34.4c0.6,0,1-0.4,1-1v-34.4l0,0l0,0l0,0l0,0v-0.1
					c0,0,0,0,0-0.1c0.2-0.2,0.9-1.1,4.2-1.8c0,0,0,0,0.1,0c0.3-0.1,0.6-0.1,0.8-0.2h0.1c0.3-0.1,0.6-0.1,0.8-0.1c0,0,0.1,0,0.2,0
					c0.3,0,0.6-0.1,0.9-0.1l0,0c0.3,0,0.7-0.1,1-0.1l0,0l0,0c0.3,0,0.6-0.1,1-0.1h0.1c0.2,0,0.4,0,0.6,0h0.4c0.1,0,0.1,0,0.2,0
					c0.3,0,0.7,0,1,0h0.1C277,350.8,277.4,350.8,277.7,350.8 M277.7,349.8c-0.3,0-0.7,0-1.1,0h-0.1c-0.3,0-0.7,0-1,0
					c-0.1,0-0.1,0-0.2,0c-0.3,0-0.7,0-1,0h-0.1c-0.3,0-0.7,0-1,0.1l0,0c-0.3,0-0.7,0.1-1,0.1l0,0c-0.3,0-0.7,0.1-1,0.1
					c0,0,0,0-0.1,0c-0.3,0-0.6,0.1-0.9,0.1c0,0,0,0-0.1,0c-0.3,0.1-0.6,0.1-0.9,0.2l0,0c-2.4,0.5-4.2,1.2-4.9,2.2
					c0,0-0.1,0.1-0.1,0.2l0,0c0,0.1,0,0.1,0,0.2l0,0v0.1c0,0.1,0,0.1,0,0.2c0,7.7,0,20.6,0,34.4c-19,0-34.4,0-34.4,0l0,0
					c-5,0-5,27.1,0,27.1c7.8,0,20.6,0,34.4,0c0,19,0,34.4,0,34.4l0,0c0,0.1,0,0.2,0,0.2c0.4,2.3,7,3.5,13.5,3.5
					c6.6,0,13.1-1.2,13.5-3.5c0-0.1,0-0.2,0-0.2c0-7.7,0-20.6,0-34.4c18.9,0,34.4,0,34.4,0l0,0c5,0,5-27.1,0-27.1
					c-7.8,0-20.6,0-34.4,0c0-19,0-34.4,0-34.4l0,0l0,0C291.3,351,284.5,349.8,277.7,349.8L277.7,349.8z"/>
			</g>
			<path class="st12" d="M264.2,387.9l-3.6-3.6h-30.8c-0.9,0-1.8,0.2-2.8,0.8l2.8,2.8C229.8,387.9,245.2,387.9,264.2,387.9z"/>
			<path class="st13" d="M229.8,387.9L229.8,387.9l-2.8-2.8c-1.4,0.9-2.7,2.7-3.5,6.1c-0.7,2.7-1,6.4-1,10.2c0,3.8,0.4,7.4,1,10.2
				c0.8,3.4,2.2,5,3.5,5.9l2.8-2.7C224.9,414.7,224.8,387.9,229.8,387.9z"/>
			<path class="st12" d="M269,350.5L269,350.5c0.3-0.1,0.6-0.1,0.9-0.2c0,0,0,0,0.1,0c0.3-0.1,0.6-0.1,0.9-0.1c0,0,0,0,0.1,0
				c0.3,0,0.7-0.1,1-0.1l0,0c0.3,0,0.7-0.1,1-0.1l0,0c0.3,0,0.7-0.1,1-0.1h0.1c0.3,0,0.6,0,1,0c0.1,0,0.1,0,0.2,0c0.3,0,0.7,0,1,0
				h0.1c0.3,0,0.7,0,1.1,0c6.8,0,13.6,1.2,13.6,3.7l2.8-2.8c-0.9-1.4-2.7-2.7-6.1-3.5c-2.7-0.7-6.4-1-10.2-1c-3.8,0-7.5,0.4-10.2,1
				c-2.9,0.7-4.7,1.8-5.7,3l2.6,2.6C264.7,351.7,266.5,351,269,350.5z"/>
			<path class="st14" d="M325.5,387.9l2.8-2.8c-0.9-0.6-1.9-0.8-2.8-0.8h-30.8l-3.6,3.6C304.9,387.9,317.6,387.9,325.5,387.9z"/>
			<path class="st15" d="M291.1,353.5L291.1,353.5c0,0,0,15.4,0,34.4l3.6-3.6l0,0v-30.8c0-0.9-0.2-1.8-0.8-2.8L291.1,353.5
				L291.1,353.5z"/>
			<path class="st13" d="M264.2,353.5c0-0.1,0-0.1,0-0.2v-0.1l0,0c0-0.1,0-0.1,0-0.2l0,0c0-0.1,0.1-0.1,0.1-0.2l-2.6-2.6
				c-1,1.1-1.3,2.3-1.3,3.3v30.8l3.8,3.6C264.4,374.1,264.2,361.2,264.2,353.5z"/>
			<path class="st16" d="M325.7,414.7L325.7,414.7c0,0-15.5,0-34.4,0l3.6,3.6h30.8h1.5l0.3-0.3c0.3-0.1,0.6-0.3,0.9-0.5L325.7,414.7
				L325.7,414.7z"/>
			<path class="st17" d="M291.2,449l2.8,2.8c0.6-0.9,0.8-1.9,0.8-2.8v-30.8l-3.6-3.6C291.2,428.4,291.2,441.3,291.2,449z"/>
			<path class="st17" d="M331.9,391.2c-0.8-3.4-2.2-5.2-3.6-6.1l-2.8,2.8c5,0,5,26.8,0.2,26.8l2.7,2.8c1.4-0.9,2.6-2.4,3.4-5.8
				c0.7-2.7,1-6.4,1-10.2C332.9,397.5,332.6,393.9,331.9,391.2z"/>
			<path class="st16" d="M291.1,449.2c-0.4,2.3-7,3.5-13.5,3.5s-13.1-1.2-13.5-3.5c0-0.1,0-0.2,0-0.2l-2.8,2.8
				c0.9,1.4,2.7,2.7,6.2,3.5c2.7,0.7,6.3,1,10.2,1c3.8,0,7.4-0.4,10.2-1c3.4-0.8,5.2-2.2,6.1-3.5l-2.8-2.8
				C291.1,449.1,291.1,449.1,291.1,449.2z"/>
			<path class="st15" d="M264.2,449.1L264.2,449.1c0,0,0-15.4,0-34.4l-3.6,3.6v30.8v0.8l0.1,0.2c0.1,0.5,0.3,1.1,0.7,1.7
				L264.2,449.1L264.2,449.1z"/>
			<path class="st18" d="M229.8,414.7l-2.8,2.8c1,0.6,1.9,0.8,2.8,0.8h30.8l3.6-3.6C250.4,414.7,237.6,414.7,229.8,414.7z"/>
		</g>
		<g class="st5">
			<path class="st19" d="M264.2,387.9l-3.6-3.6L264.2,387.9z"/>
			<polygon class="st20" points="291.3,387.9 294.9,384.3 294.9,384.3 294.9,384.3 			"/>
			<g id="Up" class="st6">
				<g>
					<path class="st21" d="M264.7,387.7v-34.2v-0.1l0.1-0.2l0.1-0.1c0.5-0.8,2.1-1.5,4.5-2c0.3-0.1,0.6-0.1,0.9-0.2
						c0.4-0.1,0.7-0.1,1-0.1c0,0,0.1,0,0.2,0c0.3,0,0.6-0.1,0.9-0.1s0.7-0.1,1-0.1c0.4,0,0.7-0.1,1-0.1l2.4-0.1c0.4,0,0.7,0,1,0
						c7.3,0,13.1,1.4,13.1,3.2c0,0.2,0,15.9,0,34.2l-13.1,13L264.7,387.7z"/>
					<path class="st22" d="M277.7,350.8c8.1,0,12.6,1.6,12.6,2.7l0,0v33.9L277.7,400l-12.6-12.5v-34l0,0l0,0l0,0l0,0v-0.1
						c0,0,0,0,0-0.1c0.2-0.2,0.9-1.1,4.2-1.8c0,0,0,0,0.1,0c0.3-0.1,0.6-0.1,0.8-0.2h0.1c0.3-0.1,0.6-0.1,0.8-0.1c0,0,0.1,0,0.2,0
						c0.3,0,0.6-0.1,0.9-0.1l0,0c0.3,0,0.7-0.1,1-0.1l0,0l0,0c0.3,0,0.6-0.1,1-0.1h0.1c0.2,0,0.4,0,0.6,0h0.4c0.1,0,0.1,0,0.2,0
						c0.3,0,0.7,0,1,0h0.1C277,350.8,277.4,350.8,277.7,350.8 M277.7,349.8c-0.3,0-0.7,0-1.1,0h-0.1c-0.3,0-0.7,0-1,0
						c-0.1,0-0.1,0-0.2,0c-0.3,0-0.7,0-1,0h-0.1c-0.3,0-0.7,0-1,0.1l0,0c-0.3,0-0.7,0.1-1,0.1l0,0c-0.3,0-0.7,0.1-1,0.1
						c0,0,0,0-0.1,0c-0.3,0-0.6,0.1-0.9,0.1c0,0,0,0-0.1,0c-0.3,0.1-0.6,0.1-0.9,0.2l0,0c-2.4,0.5-4.2,1.2-4.9,2.2
						c0,0-0.1,0.1-0.1,0.2l0,0c0,0.1,0,0.1,0,0.2l0,0v0.1c0,0.1,0,0.1,0,0.2c0,7.7,0,20.6,0,34.4l13.6,13.5l13.6-13.5
						c0-19,0-34.4,0-34.4l0,0l0,0C291.3,351,284.5,349.8,277.7,349.8L277.7,349.8z"/>
				</g>
				<path class="st23" d="M269.3,350.5L269.3,350.5c0.3-0.1,0.6-0.1,0.9-0.2c0,0,0,0,0.1,0c0.3-0.1,0.6-0.1,0.9-0.1c0,0,0,0,0.1,0
					c0.3,0,0.7-0.1,1-0.1l0,0c0.3,0,0.7-0.1,1-0.1l0,0c0.3,0,0.7-0.1,1-0.1h0.1c0.3,0,0.6,0,1,0c0.1,0,0.1,0,0.2,0c0.3,0,0.7,0,1,0
					h0.1c0.3,0,0.7,0,1.1,0c6.8,0,13.6,1.2,13.6,3.7l2.8-2.8c-0.9-1.4-2.7-2.7-6.1-3.5c-2.7-0.7-6.4-1-10.2-1c-3.8,0-7.5,0.4-10.2,1
					c-2.9,0.7-4.7,1.8-5.7,3l2.6,2.6C265,351.7,266.8,351,269.3,350.5z"/>
				<path class="st24" d="M291.3,353.5L291.3,353.5c0,0,0,15.4,0,34.4l3.6-3.6v-30.8c0-0.9-0.2-1.8-0.8-2.8L291.3,353.5L291.3,353.5
					z"/>
				<path class="st25" d="M264.2,353.5c0-0.1,0-0.1,0-0.2v-0.1l0,0c0-0.1,0-0.1,0-0.2l0,0c0-0.1,0.1-0.1,0.1-0.2l-2.6-2.6
					c-1,1.1-1.3,2.3-1.3,3.3v30.8l3.6,3.6C264.2,374.1,264.2,361.2,264.2,353.5z"/>
			</g>
			<polygon class="st26" points="294.9,418.6 291.3,415 291.3,415 			"/>
			<g id="Right" class="st6">
				<g>
					<path class="st21" d="M291.5,414.5l-13.1-13.1l13.1-13h34.2c1.8,0,3.2,5.7,3.2,13s-1.4,13-3.2,13h-34.2V414.5z"/>
					<path class="st22" d="M325.7,388.9c1.1,0,2.7,4.8,2.7,12.5c0,7.8-1.6,12.5-2.7,12.5h-34l-12.6-12.6l12.6-12.5h34 M325.7,387.9
						c-7.8,0-20.6,0-34.4,0l-13.6,13.5l13.6,13.6c18.9,0,34.4,0,34.4,0l0,0C330.6,415,330.6,387.9,325.7,387.9L325.7,387.9z"/>
				</g>
				<path class="st27" d="M325.7,387.9l2.8-2.8c-0.9-0.6-1.9-0.8-2.8-0.8h-30.8l-3.6,3.6C305.1,387.9,317.9,387.9,325.7,387.9z"/>
				<path class="st28" d="M325.7,415L325.7,415c0,0-15.5,0-34.4,0l3.6,3.6h30.8h1.5l0.3-0.3c0.3-0.1,0.6-0.3,0.9-0.5L325.7,415
					L325.7,415z"/>
				<path class="st29" d="M328.4,385.1l-2.8,2.8c5,0,5,27.1,0,27.1l2.8,2.8c1.4-0.9,2.7-2.7,3.5-6.1c0.7-2.7,1-6.4,1-10.2
					c0-3.8-0.4-7.4-1-10.2C331.1,387.9,329.8,386,328.4,385.1z"/>
			</g>
			<g id="Down" class="st6">
				<g>
					<path class="st21" d="M277.7,452.6c-7.1,0-12.7-1.3-13-3.1v-0.1c0-0.1,0-15.4,0-34.2l13.1-13.1l13.1,13.1v34.2c0,0,0,0.1,0,0.2
						C290.5,451.3,284.9,452.6,277.7,452.6z"/>
					<path class="st22" d="M277.7,402.8l12.6,12.6v34c0,0,0,0,0,0.1c-0.2,1.1-4.7,2.7-12.6,2.7s-12.4-1.5-12.5-2.7v-0.1v-34
						L277.7,402.8 M277.7,401.4L264.2,415c0,19,0,34.4,0,34.4l0,0c0,0.1,0,0.2,0,0.2c0.4,2.3,7,3.5,13.5,3.5
						c6.6,0,13.1-1.2,13.5-3.5c0-0.1,0-0.2,0-0.2c0-7.7,0-20.6,0-34.4L277.7,401.4L277.7,401.4z"/>
				</g>
				<path class="st29" d="M291.3,449.4l2.8,2.8c0.6-0.9,0.8-1.9,0.8-2.8v-30.8l-3.6-3.6C291.3,428.8,291.3,441.7,291.3,449.4z"/>
				<path class="st28" d="M291.3,449.6c-0.4,2.3-7,3.5-13.5,3.5s-13.1-1.2-13.5-3.5c0-0.1,0-0.2,0-0.2l-2.8,2.8
					c0.9,1.4,2.7,2.7,6.2,3.5c2.7,0.7,6.3,1,10.2,1c3.8,0,7.4-0.4,10.2-1c3.4-0.8,5.2-2.2,6.1-3.5l-2.8-2.8
					C291.3,449.5,291.3,449.5,291.3,449.6z"/>
				<path class="st24" d="M264.2,449.4L264.2,449.4c0,0,0-15.4,0-34.4l-3.6,3.6v30.8v0.8l0.1,0.2c0.1,0.5,0.3,1.1,0.7,1.7
					L264.2,449.4L264.2,449.4z"/>
			</g>
			<g id="left" class="st6">
				<g>
					<path class="st21" d="M229.8,414.5c-1.8,0-3.2-5.7-3.2-13s1.4-13,3.2-13H264l13.1,13l-13.1,13H229.8z"/>
					<path class="st22" d="M263.8,388.9l12.6,12.5L263.8,414h-34c-1.1,0-2.7-4.8-2.7-12.5s1.6-12.6,2.7-12.6H263.8 M264.2,387.9
						c-19,0-34.4,0-34.4,0l0,0c-5,0-5,27.1,0,27.1c7.8,0,20.6,0,34.4,0l13.6-13.6L264.2,387.9L264.2,387.9z"/>
				</g>
				<path class="st23" d="M264.2,387.9l-3.6-3.6h-30.8c-0.9,0-1.8,0.2-2.8,0.8l2.8,2.8C229.8,387.9,245.2,387.9,264.2,387.9z"/>
				<path class="st25" d="M229.8,387.9L229.8,387.9l-2.8-2.8c-1.4,0.9-2.7,2.7-3.5,6.1c-0.7,2.7-1,6.4-1,10.2c0,3.8,0.4,7.4,1,10.2
					c0.8,3.4,2.2,5.2,3.5,6.1l2.8-2.8C224.8,415,224.8,387.9,229.8,387.9z"/>
				<path class="st30" d="M229.8,415l-2.8,2.8c1,0.6,1.9,0.8,2.8,0.8h30.8l3.6-3.6C250.4,415,237.5,415,229.8,415z"/>
			</g>
		</g>
		<path class="st15" d="M278.4,452.5c-7.1,0-13.5-1.5-13.8-3.3v-0.1c0-0.1,0-15.5,0-34.4c0-0.3-0.2-0.5-0.5-0.5h-34.4
			c-1.8,0-3.2-5.7-3.2-13s1.4-13,3.2-13h34.4c0.3,0,0.5-0.2,0.5-0.5v-34.4v-0.1l0.1-0.2l0.1-0.1c0.5-0.8,1.4-1.7,8.5-1.9
			L278.4,452.5z"/>
		<path class="st31" d="M251.2,414.3l-21.5,0.1c-1.8,0-3.2-5.7-3.2-13s1.4-13,3.2-13l16.4-0.1L251.2,414.3z"/>
	</g>
	<g id="Menu_Key">
		<g>
			<path class="st32" d="M447.1,280.4c0,9.4-7.6,17-17,17s-17-7.6-17-17s7.6-17,17-17S447.1,271,447.1,280.4z"/>
		</g>
		<g>
			<path class="st33" d="M446.2,280.4c0,8.9-7.2,16.1-16.1,16.1s-16.1-7.2-16.1-16.1s7.2-16.1,16.1-16.1S446.2,271.5,446.2,280.4z"
				/>
			<g class="st34">
				<rect x="422.9" y="275.8" class="st35" width="14.4" height="1.6"/>
				<rect x="422.9" y="279.7" class="st35" width="14.4" height="1.6"/>
				<rect x="422.9" y="283.5" class="st35" width="14.4" height="1.5"/>
			</g>
		</g>
	</g>
	<g id="Switcher_Key">
		<g>
			<path class="st32" d="M339.1,280.4c0,9.4-7.6,17-17,17s-17-7.6-17-17s7.6-17,17-17C331.4,263.4,339.1,271,339.1,280.4z"/>
		</g>
		<g>
			<path class="st33" d="M338.2,280.4c0,8.9-7.2,16.1-16.1,16.1s-16.1-7.2-16.1-16.1s7.2-16.1,16.1-16.1S338.2,271.5,338.2,280.4z"
				/>
			<g class="st34">
				<polygon class="st35" points="319.6,280.3 316.6,280.3 316.6,276.5 322.1,276.5 322.1,277.8 323.9,277.8 323.9,274.8 315,274.8 
					315,282.2 319.6,282.2 				"/>
				<path class="st35" d="M320.4,278.4v7.6h9v-7.6H320.4z M327.5,284.2H322v-3.9h5.5V284.2z"/>
			</g>
		</g>
	</g>
	<g id="Left_Stick">
		<g>
			<path class="st36" d="M185.6,351.5c-37.3,0-67.7-30.3-67.7-67.6s30.3-67.6,67.7-67.6c37.3,0,67.7,30.3,67.7,67.6
				S222.9,351.5,185.6,351.5z"/>
		</g>
		<path class="st37" d="M241.7,279.9c0,31-25.1,56-56.1,56s-56.1-25.1-56.1-56c0-31,25.1-56.1,56.1-56.1
			C216.6,223.8,241.7,248.9,241.7,279.9z"/>
	</g>
	<g id="Right_Stick">
		<g>
			<path class="st36" d="M473,465.4c-37.3,0-67.6-30.3-67.6-67.6s30.3-67.7,67.6-67.7s67.7,30.4,67.7,67.7
				C540.6,435,510.3,465.4,473,465.4z"/>
		</g>
		<path class="st37" d="M529.1,393.8c0,31-25.1,56.1-56.1,56.1s-56-25.1-56-56.1s25.1-56.1,56-56.1
			C504,337.7,529.1,362.8,529.1,393.8z"/>
	</g>
	<g id="Button_Base">
		<g id="A">
			<path class="st38" d="M566.6,355.2c-13.9,0-25.2-11.3-25.2-25.2c0-13.9,11.3-25.2,25.2-25.2s25.2,11.3,25.2,25.2
				C591.8,343.9,580.5,355.2,566.6,355.2z"/>
			<path class="st32" d="M566.6,306.4c13.1,0,23.7,10.6,23.7,23.7s-10.6,23.7-23.7,23.7c-13.1,0-23.7-10.6-23.7-23.7
				C543,317,553.6,306.4,566.6,306.4 M566.6,303.4c-14.7,0-26.7,12-26.7,26.7s12,26.7,26.7,26.7s26.7-12,26.7-26.7
				S581.4,303.4,566.6,303.4L566.6,303.4z"/>
		</g>
		<g id="Y">
			<path class="st38" d="M566.6,254.2c-13.9,0-25.2-11.3-25.2-25.2s11.3-25.2,25.2-25.2s25.2,11.3,25.2,25.2
				S580.5,254.2,566.6,254.2z"/>
			<path class="st32" d="M566.6,205.4c13.1,0,23.7,10.6,23.7,23.7c0,13.1-10.6,23.7-23.7,23.7c-13.1,0-23.7-10.6-23.7-23.7
				C543,216,553.6,205.4,566.6,205.4 M566.6,202.4c-14.7,0-26.7,12-26.7,26.7s12,26.7,26.7,26.7s26.7-12,26.7-26.7
				C593.3,214.3,581.4,202.4,566.6,202.4L566.6,202.4z"/>
		</g>
		<g id="B">
			<path class="st38" d="M617.2,304.7c-13.9,0-25.2-11.3-25.2-25.2c0-13.9,11.3-25.2,25.2-25.2s25.2,11.3,25.2,25.2
				C642.3,293.4,631,304.7,617.2,304.7z"/>
			<path class="st32" d="M617.2,255.9c13.1,0,23.7,10.6,23.7,23.7s-10.6,23.7-23.7,23.7c-13.1,0-23.7-10.6-23.7-23.7
				S604.1,255.9,617.2,255.9 M617.2,252.9c-14.7,0-26.7,12-26.7,26.7s12,26.7,26.7,26.7s26.7-12,26.7-26.7
				C643.8,264.8,631.9,252.9,617.2,252.9L617.2,252.9z"/>
		</g>
		<g id="X">
			<path class="st38" d="M516.1,304.7c-13.9,0-25.2-11.3-25.2-25.2c0-13.9,11.3-25.2,25.2-25.2s25.2,11.3,25.2,25.2
				S530,304.7,516.1,304.7z"/>
			<path class="st32" d="M516.1,255.9c13.1,0,23.7,10.6,23.7,23.7s-10.6,23.7-23.7,23.7c-13.1,0-23.7-10.6-23.7-23.7
				C492.5,266.5,503.1,255.9,516.1,255.9 M516.1,252.9c-14.7,0-26.7,12-26.7,26.7s12,26.7,26.7,26.7s26.7-12,26.7-26.7
				C542.8,264.8,530.8,252.9,516.1,252.9L516.1,252.9z"/>
		</g>
	</g>
	<g id="Bumpers">
		<g class="st5">
			<path class="st39" d="M375.6,156.6c0,0-88.9-1.1-100.5-3l-16.4,30.5c20.2,23.3,41.6,53.3,56.4,53.3c15.1,0,60.5,0,60.5,0
				s45.4,0,60.5,0c14.9,0,36.2-30,56.4-53.3l-16.4-30.5C464.5,155.5,375.6,156.6,375.6,156.6z"/>
			<path class="st40" d="M476.1,153.6l-3.6-6.8c-1.9,0.5-3.7,0.7-5.4,0.7c-21.9,0-92.1,0-92.1,0s-70.3,0-92.1,0
				c-1.4,0-2.8-0.2-4.3-0.5l-3.5,6.5c11.6,1.9,100.5,3,100.5,3S464.5,155.5,476.1,153.6z"/>
		</g>
		<g id="RB_1_">
			<path class="st41" d="M642.4,192c-9-7.9-5.6-16.2-11.5-23.8c0.2,0.3,0.5,0.7,0.7,1c0,0-96.5-42-120.7-34.5
				c-15.6,4.9-27.2,15.3-32.8,18.2l1.6,2.8c27.2-0.9,23.8-6.6,42.7-6.6C560.2,152.1,608.9,174,642.4,192L642.4,192z"/>
			<path class="st42" d="M510.9,134.7c24.3-7.6,120.7,34.4,120.7,34.5c-0.2-0.3-0.5-0.7-0.7-1l-0.1-0.1c-0.1-0.1-0.2-0.2-0.3-0.4
				c0-0.1-0.1-0.1-0.1-0.2c-0.1-0.1-0.2-0.2-0.3-0.3s-0.1-0.1-0.2-0.2c-0.1-0.1-0.2-0.2-0.3-0.3s-0.1-0.1-0.2-0.2
				c-0.1-0.1-0.2-0.2-0.3-0.3s-0.1-0.1-0.2-0.2c-0.1-0.1-0.2-0.2-0.3-0.3s-0.2-0.1-0.2-0.2c-0.1-0.1-0.2-0.2-0.3-0.3
				s-0.1-0.1-0.2-0.2c-0.1-0.1-0.2-0.2-0.3-0.3s-0.2-0.1-0.3-0.2c-0.1-0.1-0.2-0.2-0.3-0.3s-0.2-0.1-0.3-0.2
				c-0.1-0.1-0.2-0.2-0.4-0.3c-0.1,0-0.2-0.1-0.3-0.2c-0.1-0.1-0.3-0.2-0.4-0.3c-0.1-0.1-0.2-0.1-0.3-0.2c-0.1-0.1-0.3-0.2-0.4-0.3
				c-0.1-0.1-0.2-0.1-0.3-0.2c-0.2-0.1-0.3-0.2-0.5-0.3c-0.1-0.1-0.2-0.1-0.3-0.2c-0.2-0.1-0.4-0.2-0.5-0.3s-0.2-0.1-0.3-0.2
				c-0.3-0.2-0.6-0.3-0.8-0.5c-18.3-9.9-71.9-37-114.2-31.4c-7.6,1-21.6,12.3-33.8,16.3l3.6,6.7C483.7,150,495.3,139.6,510.9,134.7z
				"/>
			<path class="st43" d="M478.1,152.9l-3.6-6.7c-0.3,0.1-0.7,0.2-1,0.3s-0.7,0.2-1,0.3l3.6,6.8l1.2,2.2c1.1,0,0,0,1.1,0
				c1.1-0.1,0,0,1.1-0.1L478.1,152.9z"/>
		</g>
		<g id="LB">
			<path class="st41" d="M107.6,192.1c33.5-18,82.2-39.9,120-42.9c19,0,15.5,5.7,42.7,6.6l1.6-2.8c-5.6-2.9-17.3-13.3-32.8-18.2
				c-24.3-7.6-120.7,34.4-120.7,34.5c0.2-0.3,0.5-0.7,0.7-1C113.2,175.9,116.6,184.1,107.6,192.1L107.6,192.1z"/>
			<path class="st42" d="M271.9,153l3.6-6.7c-12.2-3.9-26.2-15.3-33.8-16.3c-42.2-5.6-95.9,21.4-114.2,31.4
				c-0.3,0.2-0.6,0.3-0.8,0.5c-0.1,0.1-0.2,0.1-0.3,0.2c-0.2,0.1-0.3,0.2-0.5,0.3c-0.1,0.1-0.2,0.1-0.3,0.2
				c-0.1,0.1-0.3,0.2-0.5,0.3c-0.1,0-0.2,0.1-0.3,0.2c-0.1,0.1-0.3,0.2-0.4,0.3s-0.2,0.1-0.3,0.2c-0.1,0.1-0.2,0.2-0.4,0.3
				c-0.1,0.1-0.2,0.1-0.3,0.2c-0.1,0.1-0.2,0.2-0.4,0.3c-0.1,0.1-0.2,0.1-0.3,0.2c-0.1,0.1-0.2,0.2-0.3,0.3
				c-0.1,0.1-0.2,0.1-0.3,0.2c-0.1,0.1-0.2,0.2-0.3,0.3c-0.1,0.1-0.1,0.1-0.2,0.2c-0.1,0.1-0.2,0.2-0.3,0.3
				c-0.1,0.1-0.2,0.1-0.2,0.2c-0.1,0.1-0.2,0.2-0.3,0.3c-0.1,0.1-0.1,0.1-0.2,0.2c-0.1,0.1-0.2,0.2-0.3,0.3
				c-0.1,0.1-0.1,0.1-0.2,0.2c-0.1,0.1-0.2,0.2-0.3,0.3c0,0.1-0.1,0.1-0.2,0.2c-0.1,0.1-0.2,0.2-0.3,0.3c0,0.1-0.1,0.1-0.1,0.2
				c-0.1,0.1-0.2,0.2-0.3,0.4l-0.1,0.1c-0.2,0.3-0.5,0.7-0.7,1c0,0,96.5-42,120.7-34.5C254.6,139.6,266.3,150.1,271.9,153z"/>
			<path class="st43" d="M270.4,155.7c1.1,0.1,0,0,1.1,0.1c1.1,0,0,0,1.1,0l1.2-2.2l3.6-6.8c-0.3-0.1-0.7-0.2-1-0.3s-0.7-0.2-1-0.3
				l-3.6,6.7L270.4,155.7z"/>
		</g>
	</g>
	<g id="Shadeing">
		
			<linearGradient id="Right_2_" gradientUnits="userSpaceOnUse" x1="495.0638" y1="-366.9692" x2="398.4011" y2="-322.3047" gradientTransform="matrix(1 0 0 -1 0 -152)">
			<stop  offset="0" style="stop-color:#000000"/>
			<stop  offset="0.3726" style="stop-color:#020202;stop-opacity:0.6274"/>
			<stop  offset="0.5069" style="stop-color:#090909;stop-opacity:0.4931"/>
			<stop  offset="0.6026" style="stop-color:#141414;stop-opacity:0.3974"/>
			<stop  offset="0.68" style="stop-color:#252525;stop-opacity:0.32"/>
			<stop  offset="0.7463" style="stop-color:#3B3B3B;stop-opacity:0.2537"/>
			<stop  offset="0.805" style="stop-color:#575757;stop-opacity:0.195"/>
			<stop  offset="0.8581" style="stop-color:#777777;stop-opacity:0.1419"/>
			<stop  offset="0.9069" style="stop-color:#9D9D9D;stop-opacity:9.308982e-02"/>
			<stop  offset="0.9523" style="stop-color:#C8C8C8;stop-opacity:4.767627e-02"/>
			<stop  offset="0.9926" style="stop-color:#F6F6F6;stop-opacity:7.380247e-03"/>
			<stop  offset="1" style="stop-color:#FFFFFF;stop-opacity:0"/>
		</linearGradient>
		<path id="Right_1_" class="st44" d="M437.3,237.4c-7,0.3-62.4,0.1-62.4,0.1v-80.8c0,0,99.8-0.7,102.4-0.7
			c29.3-0.6,25.1-6.5,45-6.5C522.3,149.3,456.1,236.7,437.3,237.4z"/>
		
			<linearGradient id="Left_1_" gradientUnits="userSpaceOnUse" x1="-743.4954" y1="-366.3812" x2="-838.7056" y2="-322.3878" gradientTransform="matrix(-1 0 0 -1 -487.1111 -152)">
			<stop  offset="0" style="stop-color:#000000"/>
			<stop  offset="0.3726" style="stop-color:#020202;stop-opacity:0.6274"/>
			<stop  offset="0.5069" style="stop-color:#090909;stop-opacity:0.4931"/>
			<stop  offset="0.6026" style="stop-color:#141414;stop-opacity:0.3974"/>
			<stop  offset="0.68" style="stop-color:#252525;stop-opacity:0.32"/>
			<stop  offset="0.7463" style="stop-color:#3B3B3B;stop-opacity:0.2537"/>
			<stop  offset="0.805" style="stop-color:#575757;stop-opacity:0.195"/>
			<stop  offset="0.8581" style="stop-color:#777777;stop-opacity:0.1419"/>
			<stop  offset="0.9069" style="stop-color:#9D9D9D;stop-opacity:9.308982e-02"/>
			<stop  offset="0.9523" style="stop-color:#C8C8C8;stop-opacity:4.767627e-02"/>
			<stop  offset="0.9926" style="stop-color:#F6F6F6;stop-opacity:7.380247e-03"/>
			<stop  offset="1" style="stop-color:#FFFFFF;stop-opacity:0"/>
		</linearGradient>
		<path id="Left" class="st45" d="M314.6,237.4c7,0.2,59.9,0,59.9,0v-80.9c0,0-99.8-0.7-102.4-0.7c-29.3-0.6-25.6-6.2-42.8-6.5
			C229.3,149.2,291.8,236.7,314.6,237.4z"/>
		<g id="Shouldershades">
			
				<linearGradient id="shouldershades_left_1_" gradientUnits="userSpaceOnUse" x1="153.3471" y1="-322.1146" x2="159.3843" y2="-336.3375" gradientTransform="matrix(1 0 0 -1 0 -152)">
				<stop  offset="0" style="stop-color:#FFFFFF;stop-opacity:0"/>
				<stop  offset="4.691958e-02" style="stop-color:#D0D0D0;stop-opacity:4.691958e-02"/>
				<stop  offset="9.815919e-02" style="stop-color:#A5A5A5;stop-opacity:9.815919e-02"/>
				<stop  offset="0.155" style="stop-color:#7D7D7D;stop-opacity:0.155"/>
				<stop  offset="0.2162" style="stop-color:#5B5B5B;stop-opacity:0.2162"/>
				<stop  offset="0.283" style="stop-color:#3F3F3F;stop-opacity:0.283"/>
				<stop  offset="0.3573" style="stop-color:#282828;stop-opacity:0.3573"/>
				<stop  offset="0.4422" style="stop-color:#161616;stop-opacity:0.4422"/>
				<stop  offset="0.5445" style="stop-color:#090909;stop-opacity:0.5445"/>
				<stop  offset="0.6816" style="stop-color:#020202;stop-opacity:0.6816"/>
				<stop  offset="1" style="stop-color:#000000"/>
			</linearGradient>
			<path id="shouldershades_left" class="st46" d="M148.6,178.8c6.9-2.8,28.3-12.1,42.4-16.3c9.2-2.7,29.5-7.6,41.3-9.2l-3-4.2
				c-24.4,0.9-55.6,12.3-81.9,23.4c-15.4,6.5-43.3,20.4-48.6,24.4c-5.7,4.4-10,9.4-13,16.9c0,0,11.5-12.4,18.8-15.7
				C125.6,189,140.2,182.3,148.6,178.8z"/>
			
				<linearGradient id="shouldershades_right_1_" gradientUnits="userSpaceOnUse" x1="-1028.6028" y1="-322.4649" x2="-1022.5932" y2="-336.6223" gradientTransform="matrix(-1 0 0 -1 -431.4074 -152)">
				<stop  offset="0" style="stop-color:#FFFFFF;stop-opacity:0"/>
				<stop  offset="3.012544e-02" style="stop-color:#E7E7E7;stop-opacity:3.012544e-02"/>
				<stop  offset="9.693062e-02" style="stop-color:#B7B7B7;stop-opacity:9.693062e-02"/>
				<stop  offset="0.1693" style="stop-color:#8B8B8B;stop-opacity:0.1693"/>
				<stop  offset="0.2457" style="stop-color:#666666;stop-opacity:0.2457"/>
				<stop  offset="0.3271" style="stop-color:#464646;stop-opacity:0.3271"/>
				<stop  offset="0.415" style="stop-color:#2C2C2C;stop-opacity:0.415"/>
				<stop  offset="0.512" style="stop-color:#191919;stop-opacity:0.512"/>
				<stop  offset="0.623" style="stop-color:#0B0B0B;stop-opacity:0.623"/>
				<stop  offset="0.7598" style="stop-color:#020202;stop-opacity:0.7598"/>
				<stop  offset="1" style="stop-color:#000000"/>
			</linearGradient>
			<path id="shouldershades_right" class="st47" d="M601.3,178.9c-6.9-2.8-28.3-12.1-42.4-16.3c-9.2-2.7-28.3-7.2-40.1-8.7l3.5-4.6
				c21,1.2,53.9,12.3,80.2,23.5c15.4,6.5,43.3,20.4,48.6,24.4c5.7,4.4,10,9.4,13,16.9c0,0-11.4-8.6-19.3-13.4
				C625.1,188.9,609.7,182.3,601.3,178.9z"/>
		</g>
	</g>
	<g>
		<g>
			
				<image style="overflow:visible;opacity:0.75;enable-background:new    ;" width="102" height="103" xlink:href="A7150322.png"  transform="matrix(0.9903 0 0 0.9903 324.4951 145.411)">
			</image>
			<g>
				<path class="st48" d="M407.3,196.4c0,18-14.6,32.6-32.6,32.6s-32.6-14.6-32.6-32.6s14.6-32.6,32.6-32.6
					C392.8,163.8,407.3,178.4,407.3,196.4z"/>
			</g>
		</g>
		<path class="st49" d="M383.8,182c0,0,8.9-9.4,13.8-8.9l0,0c-0.7-0.7-1.5-1.4-2.3-2l0,0c-0.4-0.3-0.8-0.6-1.2-0.9c0,0,0,0-0.1-0.1
			c-0.4-0.3-0.8-0.5-1.2-0.8l0,0c-0.4-0.1-0.8-0.1-1.2-0.2c-5.3-0.5-16.9,4.5-16.9,4.5s-11.6-5-16.9-4.5c-0.4,0-0.8,0.1-1.2,0.2l0,0
			c-0.4,0.3-0.8,0.6-1.2,0.8c0,0,0,0-0.1,0c-0.4,0.3-0.8,0.6-1.2,0.9l0,0c-0.8,0.6-1.5,1.3-2.3,2l0,0c4.8-0.6,13.8,8.9,13.8,8.9
			s-17.7,20.9-17,34.1c1.1,1.4,2.3,2.8,3.6,4c-0.4-12,22.3-30.1,22.3-30.1s22.8,18.1,22.3,30.1c1.3-1.2,2.5-2.6,3.6-4l0,0
			C401.5,202.9,383.8,182,383.8,182z"/>
	</g>
	<g id="Triggers">
		<g>
			<path class="st41" d="M549,5.7c-0.4-0.3-0.8-0.6-1.2-0.9l-2.3,109.9l53.2,7.2C586.6,5.2,555.7,10.9,549,5.7z"/>
			<path class="st42" d="M522,0.3c-10.8,0.4-12.1,11.4-12.2,15.2v1.2c0,0,2.9,40.7,0,93c9.9,2.3,38.5,5.3,38.5,5.3s0-20.9,0.7-50.6
				c0.8-37.5-1.2-59.8-1.2-59.8C541.4,0.3,534.2-0.1,522,0.3z"/>
		</g>
		<g>
			<path class="st41" d="M201.1,5.7c0.4-0.3,0.8-0.6,1.2-0.9l2.3,109.9l-53.2,7.2C163.5,5.2,194.4,10.9,201.1,5.7z"/>
			<path class="st42" d="M228.1,0.3c10.8,0.4,12.1,11.4,12.2,15.2v1.2c0,0-2.9,40.7,0,93c-9.9,2.3-38.5,5.3-38.5,5.3
				s-0.1-20.9-0.7-50.6c-0.8-37.5,1.2-59.8,1.2-59.8C208.7,0.3,215.9-0.1,228.1,0.3z"/>
		</g>
	</g>
</g>
<g id="Layer_2_1_">
</g>
<rect x="338.5" y="468.5" class="st50" width="73" height="18.6"/>
<g class="st51">
	<path class="st52" d="M344.4,483.5l-5.8-15h2.2l3.9,10.9c0.3,0.9,0.6,1.7,0.8,2.5c0.2-0.8,0.5-1.6,0.8-2.5l4.1-10.9h2l-5.9,15
		H344.4z"/>
	<path class="st52" d="M352,478.1c0-2,0.6-3.5,1.7-4.5c0.9-0.8,2.1-1.2,3.4-1.2c1.5,0,2.7,0.5,3.7,1.5s1.4,2.3,1.4,4.1
		c0,1.4-0.2,2.5-0.6,3.3s-1,1.4-1.8,1.9c-0.8,0.4-1.7,0.7-2.6,0.7c-1.5,0-2.8-0.5-3.7-1.5C352.5,481.3,352,479.9,352,478.1z
		 M353.9,478.1c0,1.4,0.3,2.4,0.9,3.1s1.4,1,2.3,1s1.7-0.3,2.3-1s0.9-1.8,0.9-3.2c0-1.3-0.3-2.4-0.9-3.1s-1.4-1-2.3-1
		s-1.7,0.3-2.3,1S353.9,476.7,353.9,478.1z"/>
	<path class="st52" d="M363.7,478.1c0-2,0.6-3.5,1.7-4.5c0.9-0.8,2.1-1.2,3.4-1.2c1.5,0,2.7,0.5,3.7,1.5s1.4,2.3,1.4,4.1
		c0,1.4-0.2,2.5-0.6,3.3s-1,1.4-1.8,1.9c-0.8,0.4-1.7,0.7-2.6,0.7c-1.5,0-2.8-0.5-3.7-1.5C364.2,481.3,363.7,479.9,363.7,478.1z
		 M365.6,478.1c0,1.4,0.3,2.4,0.9,3.1s1.4,1,2.3,1s1.7-0.3,2.3-1s0.9-1.8,0.9-3.2c0-1.3-0.3-2.4-0.9-3.1s-1.4-1-2.3-1
		s-1.7,0.3-2.3,1S365.6,476.7,365.6,478.1z"/>
	<path class="st52" d="M383.1,483.5v-1.4c-0.7,1.1-1.7,1.6-3,1.6c-0.9,0-1.7-0.2-2.4-0.7c-0.7-0.5-1.3-1.1-1.7-2
		c-0.4-0.9-0.6-1.8-0.6-3c0-1.1,0.2-2.1,0.5-3c0.4-0.9,0.9-1.6,1.6-2c0.7-0.5,1.5-0.7,2.4-0.7c0.7,0,1.2,0.1,1.8,0.4
		c0.5,0.3,0.9,0.6,1.3,1.1v-5.4h1.8v15h-1.7V483.5z M377.3,478.1c0,1.4,0.3,2.4,0.9,3.1s1.3,1,2.1,1c0.8,0,1.5-0.3,2.1-1
		s0.8-1.7,0.8-3c0-1.5-0.3-2.6-0.9-3.3s-1.3-1-2.1-1c-0.8,0-1.5,0.3-2.1,1C377.6,475.6,377.3,476.6,377.3,478.1z"/>
	<path class="st52" d="M387.1,478.1c0-2,0.6-3.5,1.7-4.5c0.9-0.8,2.1-1.2,3.4-1.2c1.5,0,2.7,0.5,3.7,1.5s1.4,2.3,1.4,4.1
		c0,1.4-0.2,2.5-0.6,3.3s-1,1.4-1.8,1.9c-0.8,0.4-1.7,0.7-2.6,0.7c-1.5,0-2.8-0.5-3.7-1.5C387.5,481.3,387.1,479.9,387.1,478.1z
		 M389,478.1c0,1.4,0.3,2.4,0.9,3.1s1.4,1,2.3,1s1.7-0.3,2.3-1s0.9-1.8,0.9-3.2c0-1.3-0.3-2.4-0.9-3.1s-1.4-1-2.3-1s-1.7,0.3-2.3,1
		S389,476.7,389,478.1z"/>
	<path class="st52" d="M398.8,478.1c0-2,0.6-3.5,1.7-4.5c0.9-0.8,2.1-1.2,3.4-1.2c1.5,0,2.7,0.5,3.7,1.5s1.4,2.3,1.4,4.1
		c0,1.4-0.2,2.5-0.6,3.3s-1,1.4-1.8,1.9c-0.8,0.4-1.7,0.7-2.6,0.7c-1.5,0-2.8-0.5-3.7-1.5C399.2,481.3,398.8,479.9,398.8,478.1z
		 M400.7,478.1c0,1.4,0.3,2.4,0.9,3.1s1.4,1,2.3,1s1.7-0.3,2.3-1s0.9-1.8,0.9-3.2c0-1.3-0.3-2.4-0.9-3.1s-1.4-1-2.3-1
		s-1.7,0.3-2.3,1S400.7,476.7,400.7,478.1z"/>
</g>
</svg>
