<?xml version="1.0" encoding="utf-8"?>
<!-- Generator: Adobe Illustrator 24.0.0, SVG Export Plug-In . SVG Version: 6.00 Build 0)  -->
<svg version="1.1" id="Layer_1" xmlns="http://www.w3.org/2000/svg" xmlns:xlink="http://www.w3.org/1999/xlink" x="0px" y="0px"
	 viewBox="0 0 750 630.5" style="enable-background:new 0 0 750 630.5;" xml:space="preserve">
<style type="text/css">
	.st0{fill:#14144C;}
	.st1{fill:#FFFFFF;}
</style>
<g>
	<path class="st0" d="M664.4,214c-6.7-16.7-20.5-20.9-21.8-22c-11.7-10.3-2.5-21.2-19.9-30.7c-18.3-9.9-72-37-114.2-31.4
		c-9.2,1.2-27.8,17.6-41.2,17.6c-21.9,0-92.2,0-92.2,0s-70.3,0-92.2,0c-13.4,0-32-16.4-41.2-17.6c-42.2-5.6-95.9,21.5-114.2,31.4
		c-17.5,9.5-8.2,20.4-19.9,30.7c-1.3,1.1-15.1,5.3-21.8,22C22.9,370-1.7,469.1,0.1,529.1C3,623.5,76.7,630.5,76.7,630.5
		c37-8.6,111.6-129.1,168.5-129.1c31.2,0,129.8,0,129.8,0s98.6,0,129.8,0c57,0,131.5,120.5,168.5,129.1c0,0,73.7-6.9,76.6-101.3
		C751.8,469.1,727.1,370,664.4,214L664.4,214z"/>
	<path class="st0" d="M548.4,114.9l50.4,6.8C586.7,5,555.8,10.8,549.1,5.5c-0.4-0.3-0.8-0.6-1.2-0.9c-6.4-4.5-13.6-4.9-25.8-4.4
		c-10.8,0.4-12.1,11.4-12.2,15.2v1.2c0,0,2.9,40.7,0,93.1C519.6,111.9,547.6,114.9,548.4,114.9z"/>
	<path class="st0" d="M201.7,114.9c0,0,28.6-3,38.5-5.3c-2.9-52.4,0-93.1,0-93.1v-1.2c-0.1-3.8-1.4-14.8-12.2-15.2
		c-12.2-0.4-19.4-0.1-25.8,4.4c-0.4,0.3-0.8,0.6-1.2,0.9c-6.8,5.3-37.6-0.5-49.7,116.3L201.7,114.9L201.7,114.9L201.7,114.9z"/>
</g>
<g>
	<path class="st1" d="M184.2,353.4v-44.8h12.9c16.5,0,24.8,7.3,24.8,21.8c0,6.9-2.3,12.5-6.9,16.7s-10.7,6.3-18.4,6.3H184.2z
		 M191.6,314.9v32.2h5.9c5.2,0,9.3-1.4,12.2-4.3s4.4-6.9,4.4-12.2c0-10.5-5.4-15.7-16.3-15.7H191.6L191.6,314.9z"/>
	<path class="st1" d="M233,314.7c-1.2,0-2.2-0.4-3-1.2s-1.3-1.8-1.3-2.9s0.4-2.2,1.3-3c0.8-0.8,1.9-1.2,3-1.2c1.2,0,2.3,0.4,3.1,1.2
		s1.3,1.8,1.3,3c0,1.1-0.4,2.1-1.3,2.9S234.2,314.7,233,314.7z M236.6,353.4h-7.3v-32h7.3V353.4z"/>
	<path class="st1" d="M244,352.4v-6.7c2.7,2.1,5.7,3.1,9,3.1c4.4,0,6.6-1.3,6.6-3.9c0-0.7-0.2-1.3-0.6-1.9s-0.9-1-1.5-1.4
		s-1.4-0.8-2.3-1.1c-0.9-0.3-1.8-0.7-2.9-1.1c-1.3-0.5-2.5-1.1-3.5-1.7s-1.9-1.2-2.6-2s-1.2-1.6-1.6-2.5s-0.5-2-0.5-3.3
		c0-1.5,0.4-2.9,1.1-4.1c0.7-1.2,1.7-2.2,2.9-3s2.6-1.4,4.2-1.8s3.2-0.6,4.8-0.6c3,0,5.6,0.4,7.9,1.3v6.3c-2.3-1.5-4.8-2.3-7.8-2.3
		c-0.9,0-1.7,0.1-2.5,0.3c-0.7,0.2-1.4,0.4-1.9,0.8c-0.5,0.3-0.9,0.7-1.2,1.2s-0.4,1-0.4,1.5c0,0.7,0.1,1.3,0.4,1.8s0.7,0.9,1.3,1.3
		s1.3,0.7,2.1,1s1.7,0.6,2.8,1c1.4,0.6,2.6,1.1,3.7,1.7s2,1.2,2.8,2c0.8,0.7,1.4,1.6,1.8,2.6s0.6,2.1,0.6,3.5c0,1.6-0.4,3-1.1,4.3
		s-1.8,2.2-3,3s-2.7,1.4-4.3,1.8c-1.6,0.4-3.4,0.6-5.2,0.6C249.6,354.2,246.6,353.6,244,352.4z"/>
	<path class="st1" d="M296.5,351.9c-2.6,1.5-5.6,2.2-9.1,2.2c-4.8,0-8.6-1.5-11.5-4.5s-4.4-6.8-4.4-11.5c0-5.3,1.6-9.5,4.7-12.7
		s7.3-4.8,12.6-4.8c2.9,0,5.5,0.5,7.7,1.5v6.8c-2.2-1.7-4.6-2.5-7.1-2.5c-3.1,0-5.6,1-7.5,3.1c-2,2.1-2.9,4.8-2.9,8.1
		c0,3.3,0.9,5.9,2.8,7.8s4.3,2.9,7.4,2.9c2.6,0,5.1-0.9,7.4-2.8v6.4H296.5z"/>
	<path class="st1" d="M317.9,354.2c-4.9,0-8.9-1.5-11.8-4.5s-4.4-7-4.4-11.9c0-5.4,1.5-9.6,4.6-12.6s7.2-4.5,12.4-4.5
		c5,0,8.9,1.5,11.7,4.4c2.8,2.9,4.2,7,4.2,12.2c0,5.1-1.5,9.2-4.5,12.3S323,354.2,317.9,354.2z M318.3,326.4c-2.8,0-5.1,1-6.7,3
		s-2.5,4.7-2.5,8.2c0,3.4,0.8,6,2.5,7.9s3.9,2.9,6.7,2.9c2.9,0,5-0.9,6.6-2.8s2.3-4.6,2.3-8.1s-0.8-6.2-2.3-8.2
		C323.3,327.4,321.1,326.4,318.3,326.4z"/>
	<path class="st1" d="M370.4,353.4h-7.3v-18c0-6-2.1-9-6.3-9c-2.2,0-4,0.8-5.5,2.5s-2.2,3.7-2.2,6.3v18.3h-7.3v-32h7.3v5.3h0.1
		c2.4-4,5.9-6.1,10.4-6.1c3.5,0,6.1,1.1,8,3.4c1.8,2.3,2.8,5.5,2.8,9.8V353.4z"/>
	<path class="st1" d="M407.8,353.4h-7.3v-18c0-6-2.1-9-6.3-9c-2.2,0-4,0.8-5.5,2.5s-2.2,3.7-2.2,6.3v18.3h-7.3v-32h7.3v5.3h0.1
		c2.4-4,5.9-6.1,10.4-6.1c3.5,0,6.1,1.1,8,3.4c1.8,2.3,2.8,5.5,2.8,9.8V353.4z"/>
	<path class="st1" d="M443.7,339.4h-21.8c0.1,3,1,5.2,2.7,6.8s4.1,2.4,7.2,2.4c3.4,0,6.6-1,9.4-3.1v5.8c-2.9,1.8-6.8,2.8-11.6,2.8
		c-4.7,0-8.4-1.5-11.1-4.4s-4-7-4-12.3c0-5,1.5-9,4.4-12.2c2.9-3.1,6.6-4.7,11-4.7s7.8,1.4,10.2,4.2s3.6,6.7,3.6,11.7L443.7,339.4
		L443.7,339.4z M436.7,334.3c0-2.6-0.6-4.6-1.8-6.1s-2.9-2.2-5-2.2s-3.8,0.8-5.3,2.3c-1.4,1.5-2.3,3.5-2.7,6L436.7,334.3
		L436.7,334.3z"/>
	<path class="st1" d="M473.5,351.9c-2.6,1.5-5.6,2.2-9.1,2.2c-4.8,0-8.6-1.5-11.5-4.5s-4.4-6.8-4.4-11.5c0-5.3,1.6-9.5,4.7-12.7
		s7.3-4.8,12.6-4.8c2.9,0,5.5,0.5,7.7,1.5v6.8c-2.2-1.7-4.6-2.5-7.1-2.5c-3.1,0-5.6,1-7.5,3.1c-2,2.1-2.9,4.8-2.9,8.1
		c0,3.3,0.9,5.9,2.8,7.8s4.3,2.9,7.4,2.9c2.6,0,5.1-0.9,7.4-2.8v6.4H473.5z"/>
	<path class="st1" d="M497.6,353.1c-1.4,0.7-3.3,1.1-5.6,1.1c-6.2,0-9.3-3-9.3-8.9v-18.1h-5.3v-5.7h5.3V314l7.3-2.1v9.5h7.7v5.7H490
		v16c0,1.9,0.3,3.3,1,4.1s1.8,1.2,3.4,1.2c1.2,0,2.3-0.4,3.2-1.1V353.1z"/>
	<path class="st1" d="M530.6,339.4h-21.8c0.1,3,1,5.2,2.7,6.8s4.1,2.4,7.2,2.4c3.4,0,6.6-1,9.4-3.1v5.8c-2.9,1.8-6.8,2.8-11.6,2.8
		c-4.7,0-8.4-1.5-11.1-4.4s-4-7-4-12.3c0-5,1.5-9,4.4-12.2c2.9-3.1,6.6-4.7,11-4.7s7.8,1.4,10.2,4.2s3.6,6.7,3.6,11.7L530.6,339.4
		L530.6,339.4z M523.6,334.3c0-2.6-0.6-4.6-1.8-6.1s-2.9-2.2-5-2.2s-3.8,0.8-5.3,2.3c-1.4,1.5-2.3,3.5-2.7,6L523.6,334.3
		L523.6,334.3z"/>
	<path class="st1" d="M566.6,353.4h-7.3V348h-0.1c-2.3,4.1-5.9,6.2-10.8,6.2c-3.9,0-7.1-1.4-9.5-4.3s-3.5-6.8-3.5-11.7
		c0-5.3,1.3-9.5,3.9-12.7c2.6-3.2,6.1-4.8,10.5-4.8c4.3,0,7.4,1.7,9.4,5.2h0.1V306h7.3L566.6,353.4L566.6,353.4z M559.4,338.8v-4.2
		c0-2.3-0.7-4.2-2.2-5.8s-3.4-2.4-5.7-2.4c-2.7,0-4.8,1-6.4,3c-1.6,2-2.3,4.8-2.3,8.4c0,3.3,0.7,5.8,2.2,7.7c1.5,1.9,3.5,2.8,6,2.8
		s4.5-0.9,6-2.7C558.6,343.9,559.4,341.6,559.4,338.8z"/>
</g>
</svg>
